# Blender v2.81 (sub 16) OBJ File: 'Gold_pickaxe_Free.blend'
# www.blender.org
mtllib Gold_pickaxe_Free.mtl
o Pickaxe_gold_Plane.003
v -0.152365 -0.138048 0.027139
v -0.652365 -0.138924 0.527138
v -0.152365 -0.138486 0.277139
v 0.097635 -0.138048 0.027139
v 0.597635 -0.138924 0.527138
v -0.652365 -0.139362 0.777138
v -0.402365 -0.138924 0.527138
v -0.402365 -0.137172 -0.472860
v 0.597635 -0.137610 -0.222860
v 0.097635 -0.137610 -0.222860
v -0.402365 -0.138486 0.277139
v -0.402365 -0.136734 -0.722860
v 0.472635 -0.138924 0.527138
v -0.277365 0.137733 0.152623
v -0.777365 0.136857 0.652622
v -0.527365 -0.137172 -0.472860
v -0.027365 0.138171 -0.097377
v 0.222635 0.138171 -0.097377
v 0.222635 0.139047 -0.597376
v -0.527365 0.136857 0.652622
v -0.152365 -0.138705 0.402139
v 0.222635 -0.138048 0.027139
v -0.027365 0.137733 0.152623
v 0.472635 0.137295 0.402622
v 0.722635 0.137295 0.402622
v -0.527365 0.137295 0.402622
v -0.277365 0.137295 0.402622
v -0.527365 0.139047 -0.597376
v -0.152365 -0.137829 -0.097861
v -0.277365 -0.138048 0.027139
v 0.347635 -0.138705 0.402139
v 0.597635 0.139047 -0.597376
v -0.527365 0.137514 0.277622
v -0.402365 0.137733 0.152623
v -0.652365 -0.138705 0.402139
v -0.652365 -0.139581 0.902138
v -0.777365 -0.138924 0.527138
v -0.277365 -0.138924 0.527138
v -0.902365 0.136857 0.652622
v -0.027365 0.138390 -0.222377
v 0.347635 -0.137829 -0.097861
v -0.777365 0.137076 0.527622
v 0.722635 -0.137610 -0.222860
v 0.097635 -0.137391 -0.347860
v -0.027365 -0.137610 -0.222860
v -0.652365 0.137295 0.402622
v 0.222635 -0.136734 -0.722860
v -0.402365 -0.137391 -0.347860
v -0.277365 0.137952 0.027623
v -0.152365 0.138171 -0.097377
v -0.527365 0.138828 -0.472377
v 0.472635 0.137076 0.527622
v 0.597635 0.137076 0.527622
v -0.402365 0.139266 -0.722376
v -0.402365 0.139047 -0.597376
v -0.402365 0.137514 0.277622
v -0.402365 -0.139143 0.652138
v -0.527365 -0.139362 0.777138
v -0.902365 -0.139143 0.652138
v -0.902365 -0.139581 0.902138
v 0.597635 0.137295 0.402622
v -0.027365 0.137514 0.277622
v 0.097635 0.137733 0.152623
v -0.902365 0.136419 0.902621
v -0.527365 0.136638 0.777622
v -0.402365 0.136857 0.652622
v -0.402365 0.138609 -0.347377
v 0.222635 0.139266 -0.722376
v 0.097635 -0.138267 0.152139
v -0.027365 -0.138486 0.277139
v 0.597635 -0.138705 0.402139
v -0.402365 -0.138267 0.152139
v -0.527365 -0.138486 0.277139
v -0.402365 -0.136953 -0.597860
v 0.097635 0.138390 -0.222377
v 0.597635 -0.136953 -0.597860
v 0.097635 0.138609 -0.347377
v 0.722635 0.138390 -0.222377
v 0.597635 0.138390 -0.222377
v -0.527365 -0.136953 -0.597860
v -0.277365 -0.138705 0.402139
v -0.527365 -0.138705 0.402139
v 0.722635 -0.138705 0.402139
v 0.472635 -0.138705 0.402139
v -0.027365 -0.138267 0.152139
v 0.347635 0.138171 -0.097377
v -0.402365 0.138828 -0.472377
v -0.402365 0.137076 0.527622
v -0.277365 0.137076 0.527622
v -0.652365 0.136638 0.777622
v -0.652365 0.136419 0.902621
v 0.347635 0.137295 0.402622
v -0.527365 -0.139143 0.652138
v 0.097635 0.137952 0.027623
v 0.222635 0.137952 0.027623
v -0.152365 0.137514 0.277622
v -0.152365 0.137295 0.402622
v 0.222635 -0.136953 -0.597860
v 0.222635 -0.137829 -0.097861
v -0.027365 -0.137829 -0.097861
v -0.652365 0.137076 0.527622
v -0.777365 -0.139143 0.652138
v -0.277365 -0.138267 0.152139
v -0.152365 0.137952 0.027623
vt 0.282226 0.587160
vt 0.282009 0.587160
vt 0.282009 0.587160
vt 0.282226 0.587160
vt 0.284614 0.588462
vt 0.284397 0.588462
vt 0.284397 0.588462
vt 0.284614 0.588462
vt 0.283312 0.587594
vt 0.283312 0.587811
vt 0.283312 0.587811
vt 0.283312 0.587594
vt 0.282443 0.587377
vt 0.282226 0.587377
vt 0.282226 0.587377
vt 0.282443 0.587377
vt 0.282443 0.587594
vt 0.282443 0.587594
vt 0.282226 0.586726
vt 0.282443 0.586726
vt 0.282443 0.586726
vt 0.282226 0.586726
vt 0.282878 0.587377
vt 0.283095 0.587377
vt 0.283095 0.587377
vt 0.282878 0.587377
vt 0.282660 0.586943
vt 0.282660 0.587160
vt 0.282660 0.587160
vt 0.282660 0.586943
vt 0.283529 0.588028
vt 0.283746 0.588028
vt 0.283746 0.588028
vt 0.283529 0.588028
vt 0.282878 0.587160
vt 0.282878 0.587160
vt 0.283746 0.589114
vt 0.283746 0.589331
vt 0.283746 0.589331
vt 0.283746 0.589114
vt 0.283095 0.587594
vt 0.283095 0.587594
vt 0.283095 0.588028
vt 0.282878 0.588028
vt 0.282878 0.588028
vt 0.283095 0.588028
vt 0.284397 0.589114
vt 0.284397 0.589114
vt 0.282443 0.588897
vt 0.282660 0.588897
vt 0.282660 0.588897
vt 0.282443 0.588897
vt 0.281792 0.586509
vt 0.282226 0.586509
vt 0.282226 0.586509
vt 0.281792 0.586509
vt 0.284614 0.587377
vt 0.284614 0.587377
vt 0.283095 0.588245
vt 0.283095 0.588245
vt 0.282660 0.588680
vt 0.283529 0.588680
vt 0.283529 0.588680
vt 0.282660 0.588680
vt 0.283529 0.588462
vt 0.283312 0.588462
vt 0.283312 0.588462
vt 0.283529 0.588462
vt 0.281792 0.586943
vt 0.281792 0.586943
vt 0.283529 0.587811
vt 0.283529 0.587811
vt 0.282660 0.589114
vt 0.282443 0.589114
vt 0.282443 0.589114
vt 0.282660 0.589114
vt 0.283312 0.588245
vt 0.283312 0.588245
vt 0.282660 0.587594
vt 0.282660 0.587594
vt 0.283963 0.587377
vt 0.284180 0.587377
vt 0.284180 0.587377
vt 0.283963 0.587377
vt 0.284180 0.587160
vt 0.284180 0.587160
vt 0.282660 0.587811
vt 0.282660 0.587811
vt 0.282443 0.586943
vt 0.282443 0.586943
vt 0.284397 0.587160
vt 0.284397 0.587160
vt 0.283746 0.588245
vt 0.283963 0.588245
vt 0.283963 0.588245
vt 0.283746 0.588245
vt 0.282009 0.586943
vt 0.282009 0.586943
vt 0.284397 0.587377
vt 0.284397 0.587377
vt 0.282878 0.587811
vt 0.282878 0.587811
vt 0.282660 0.589331
vt 0.282660 0.589331
vt 0.277344 0.589844
vt 0.277344 0.593750
vt 0.281250 0.593750
vt 0.281250 0.597656
vt 0.285156 0.597656
vt 0.285156 0.601562
vt 0.289062 0.601562
vt 0.289062 0.605469
vt 0.273438 0.605469
vt 0.273438 0.609375
vt 0.269531 0.609375
vt 0.269531 0.613281
vt 0.273438 0.613281
vt 0.273438 0.617188
vt 0.292969 0.617188
vt 0.292969 0.613281
vt 0.304688 0.613281
vt 0.304688 0.601562
vt 0.308594 0.601562
vt 0.308594 0.582031
vt 0.304688 0.582031
vt 0.304688 0.578125
vt 0.300781 0.578125
vt 0.300781 0.582031
vt 0.296875 0.582031
vt 0.296875 0.597656
vt 0.292969 0.597656
vt 0.292969 0.593750
vt 0.289062 0.593750
vt 0.289062 0.589844
vt 0.285156 0.589844
vt 0.285156 0.585938
vt 0.281250 0.585938
vt 0.281250 0.582031
vt 0.277344 0.582031
vt 0.277344 0.578125
vt 0.273438 0.578125
vt 0.273438 0.574219
vt 0.269531 0.574219
vt 0.269531 0.570312
vt 0.265625 0.570312
vt 0.265625 0.566406
vt 0.257812 0.566406
vt 0.257812 0.574219
vt 0.261719 0.574219
vt 0.261719 0.578125
vt 0.265625 0.578125
vt 0.265625 0.582031
vt 0.269531 0.582031
vt 0.269531 0.585938
vt 0.273438 0.585938
vt 0.273438 0.589844
vt 0.277344 0.582031
vt 0.281250 0.582031
vt 0.281250 0.585938
vt 0.285156 0.585938
vt 0.285156 0.589844
vt 0.289062 0.589844
vt 0.289062 0.593750
vt 0.292969 0.593750
vt 0.292969 0.597656
vt 0.296875 0.597656
vt 0.296875 0.582031
vt 0.300781 0.582031
vt 0.300781 0.578125
vt 0.304688 0.578125
vt 0.304688 0.582031
vt 0.308594 0.582031
vt 0.308594 0.601562
vt 0.304688 0.601562
vt 0.304688 0.613281
vt 0.292969 0.613281
vt 0.292969 0.617188
vt 0.273438 0.617188
vt 0.273438 0.613281
vt 0.269531 0.613281
vt 0.269531 0.609375
vt 0.273438 0.609375
vt 0.273438 0.605469
vt 0.289062 0.605469
vt 0.289062 0.601562
vt 0.285156 0.601562
vt 0.285156 0.597656
vt 0.281250 0.597656
vt 0.281250 0.593750
vt 0.277344 0.593750
vt 0.277344 0.589844
vt 0.273438 0.589844
vt 0.273438 0.585938
vt 0.269531 0.585938
vt 0.269531 0.582031
vt 0.265625 0.582031
vt 0.265625 0.578125
vt 0.261719 0.578125
vt 0.261719 0.574219
vt 0.257812 0.574219
vt 0.257812 0.566406
vt 0.265625 0.566406
vt 0.265625 0.570312
vt 0.269531 0.570312
vt 0.269531 0.574219
vt 0.273438 0.574219
vt 0.273438 0.578125
vt 0.277344 0.578125
vn 0.0000 0.0018 -1.0000
vn 1.0000 0.0000 0.0000
vn -1.0000 0.0000 0.0000
vn 0.0000 -0.0018 1.0000
vn 0.0000 -1.0000 -0.0018
vn 0.0000 1.0000 0.0018
usemtl LowPolyToObject
s off
f 2/1/1 37/2/1 42/3/1 101/4/1
f 43/5/1 9/6/1 79/7/1 78/8/1
f 70/9/2 85/10/2 23/11/2 62/12/2
f 82/13/1 35/14/1 46/15/1 26/16/1
f 35/14/3 2/1/3 101/4/3 46/15/3
f 73/17/3 82/13/3 26/16/3 33/18/3
f 6/19/4 58/20/4 65/21/4 90/22/4
f 81/23/4 21/24/4 97/25/4 27/26/4
f 57/27/2 7/28/2 88/29/2 66/30/2
f 4/31/4 22/32/4 95/33/4 94/34/4
f 38/35/2 81/23/2 27/26/2 89/36/2
f 98/37/2 47/38/2 68/39/2 19/40/2
f 21/24/2 3/41/2 96/42/2 97/25/2
f 1/43/1 30/44/1 49/45/1 104/46/1
f 9/6/2 76/47/2 32/48/2 79/7/2
f 16/49/4 8/50/4 87/51/4 51/52/4
f 60/53/4 36/54/4 91/55/4 64/56/4
f 3/41/4 70/9/4 62/12/4 96/42/4
f 43/5/2 78/8/2 25/57/2 83/58/2
f 29/59/3 1/43/3 104/46/3 50/60/3
f 48/61/4 44/62/4 77/63/4 67/64/4
f 10/65/1 45/66/1 40/67/1 75/68/1
f 59/69/3 60/53/3 64/56/3 39/70/3
f 69/71/2 4/31/2 94/34/2 63/72/2
f 74/73/1 80/74/1 28/75/1 55/76/1
f 7/28/4 38/35/4 89/36/4 88/29/4
f 44/62/3 10/65/3 75/68/3 77/63/3
f 80/74/3 16/49/3 51/52/3 28/75/3
f 36/54/2 6/19/2 90/22/2 91/55/2
f 100/77/1 29/59/1 50/60/1 17/78/1
f 11/79/1 73/17/1 33/18/1 56/80/1
f 31/81/4 84/82/4 24/83/4 92/84/4
f 84/82/3 13/85/3 52/86/3 24/83/3
f 45/66/3 100/77/3 17/78/3 40/67/3
f 72/87/3 11/79/3 56/80/3 34/88/3
f 93/89/4 57/27/4 66/30/4 20/90/4
f 13/85/4 5/91/4 53/92/4 52/86/4
f 99/93/4 41/94/4 86/95/4 18/96/4
f 8/50/3 48/61/3 67/64/3 87/51/3
f 102/97/1 59/69/1 39/70/1 15/98/1
f 58/20/2 93/89/2 20/90/2 65/21/2
f 71/99/4 83/58/4 25/57/4 61/100/4
f 22/32/2 99/93/2 18/96/2 95/33/2
f 5/91/2 71/99/2 61/100/2 53/92/2
f 41/94/3 31/81/3 92/84/3 86/95/3
f 37/2/3 102/97/3 15/98/3 42/3/3
f 103/101/1 72/87/1 34/88/1 14/102/1
f 47/38/1 12/103/1 54/104/1 68/39/1
f 76/47/1 98/37/1 19/40/1 32/48/1
f 30/44/3 103/101/3 14/102/3 49/45/3
f 85/10/4 69/71/4 63/72/4 23/11/4
f 12/103/3 74/73/3 55/76/3 54/104/3
f 103/105/5 30/106/5 1/107/5 29/108/5 100/109/5 45/110/5 10/111/5 44/112/5 48/113/5 8/114/5 16/115/5 80/116/5 74/117/5 12/118/5 47/119/5 98/120/5 76/121/5 9/122/5 43/123/5 83/124/5 71/125/5 5/126/5 13/127/5 84/128/5 31/129/5 41/130/5 99/131/5 22/132/5 4/133/5 69/134/5 85/135/5 70/136/5 3/137/5 21/138/5 81/139/5 38/140/5 7/141/5 57/142/5 93/143/5 58/144/5 6/145/5 36/146/5 60/147/5 59/148/5 102/149/5 37/150/5 2/151/5 35/152/5 82/153/5 73/154/5 11/155/5 72/156/5
f 27/157/6 97/158/6 96/159/6 62/160/6 23/161/6 63/162/6 94/163/6 95/164/6 18/165/6 86/166/6 92/167/6 24/168/6 52/169/6 53/170/6 61/171/6 25/172/6 78/173/6 79/174/6 32/175/6 19/176/6 68/177/6 54/178/6 55/179/6 28/180/6 51/181/6 87/182/6 67/183/6 77/184/6 75/185/6 40/186/6 17/187/6 50/188/6 104/189/6 49/190/6 14/191/6 34/192/6 56/193/6 33/194/6 26/195/6 46/196/6 101/197/6 42/198/6 15/199/6 39/200/6 64/201/6 91/202/6 90/203/6 65/204/6 20/205/6 66/206/6 88/207/6 89/208/6
